<svg xmlns="http://www.w3.org/2000/svg" xmlns:xlink="http://www.w3.org/1999/xlink" id="圖層_1" x="0" y="0" version="1.1" viewBox="-271.1 380.5 149.3 92.6" xml:space="preserve" style="enable-background:new -271.1 380.5 149.3 92.6"><style type="text/css">.st0{fill:#fff}</style><g id="XMLID_18_"><g id="XMLID_35_"><g id="XMLID_36_"><polygon id="XMLID_41_" points="-197.3 405.6 -234.4 380.5 -234.4 391.5 -234.4 393 -234.4 435.7 -225.5 442.7 -225.5 399.4 -197.3 418" class="st0"/><polygon id="XMLID_40_" points="-195.6 405.6 -158.5 380.5 -158.5 391.5 -158.5 393 -158.5 435.7 -167.2 442.7 -167.2 399.4 -195.6 418" class="st0"/><polygon id="XMLID_39_" points="-171.6 434.9 -194.2 419.3 -186.7 414.2 -171.6 424.2" class="st0"/><polygon id="XMLID_38_" points="-223.9 437.6 -198.1 419.3 -205.6 414.2 -222 425.3 -222 403.3 -223.9 402" class="st0"/><polygon id="XMLID_37_" points="-196.2 422.4 -223.9 441.6 -223.9 439.7 -196.2 420.2 -170.3 437.9 -170.3 403.3 -168.7 402 -168.7 441.5" class="st0"/></g></g><g id="XMLID_19_"><polygon id="XMLID_34_" points="-271.1 456.8 -271.1 473.2 -268.7 473.2 -268.7 462.5 -263 468.1 -257.3 462.5 -257.3 473.2 -255 473.2 -255 456.8 -263 464.8" class="st0"/><path id="XMLID_31_" d="M-244,457c-4.4,0-8.1,3.6-8.1,8.1c0,4.4,3.6,8.1,8.1,8.1s8.1-3.6,8.1-8.1 C-236,460.7-239.6,457-244,457z M-238.3,465.1c0,3.1-2.6,5.7-5.7,5.7s-5.7-2.6-5.7-5.7c0-3.1,2.6-5.7,5.7-5.7 S-238.3,462-238.3,465.1z" class="st0"/><path id="XMLID_28_" d="M-226,456.9c-4.4,0-8.1,3.6-8.1,8.1c0,4.4,3.6,8.1,8.1,8.1c4.4,0,8.1-3.6,8.1-8.1 C-217.9,460.6-221.5,456.9-226,456.9z M-220.3,465c0,3.1-2.6,5.7-5.7,5.7c-3.1,0-5.7-2.6-5.7-5.7c0-3.1,2.6-5.7,5.7-5.7 C-222.8,459.3-220.3,461.9-220.3,465z" class="st0"/><rect id="XMLID_27_" width="2.1" height="16.1" x="-161.1" y="457" class="st0"/><polygon id="XMLID_26_" points="-167.6 463.7 -177.4 463.7 -177.4 457 -179.8 457 -179.8 473.2 -177.4 473.2 -177.4 466.1 -168.4 466.1 -167.6 464.7 -167.6 473.2 -165.2 473.2 -165.2 457 -167.6 457" class="st0"/><polygon id="XMLID_25_" points="-202.7 468 -214.9 456.8 -214.9 473.2 -212.6 473.2 -212.6 462.2 -200.4 473.4 -200.4 457 -202.7 457" class="st0"/><polygon id="XMLID_24_" points="-142.7 468 -154.9 456.8 -154.9 473.2 -152.5 473.2 -152.6 462.2 -140.3 473.4 -140.3 457 -142.7 457" class="st0"/><g id="XMLID_21_"><polygon id="XMLID_23_" points="-125 466.1 -123.7 463.7 -132.3 463.7 -133.4 466.1" class="st0"/><polygon id="XMLID_22_" points="-134.2 459.4 -123.1 459.4 -121.8 457 -136.5 457 -136.5 473.2 -123.1 473.2 -121.9 470.8 -134.2 470.8" class="st0"/></g><path id="XMLID_20_" d="M-192.4,459.4h8.9l1.2-2.3h-10.2c-2.5,0-4.5,2-4.5,4.5c0,2.5,2,4.5,4.5,4.5l5.3,0 c1.3,0,2.4,1.1,2.4,2.4c0,1.3-1.1,2.4-2.4,2.4h-8.8l-1.2,2.3h10c2.6,0,4.7-2.1,4.7-4.7c0-2.6-2.1-4.7-4.7-4.7h-5.3 c-1.2,0-2.2-1-2.2-2.2C-194.5,460.4-193.6,459.4-192.4,459.4z" class="st0"/></g></g></svg>