<svg width="81" height="80" viewBox="0 0 81 80" fill="none" xmlns="http://www.w3.org/2000/svg">
<g clip-path="url(#clip0_142_132)">
<path d="M40.4211 45C52.9737 45 63.1579 34.9219 63.1579 22.5C63.1579 10.0781 52.9737 0 40.4211 0C27.8684 0 17.6842 10.0781 17.6842 22.5C17.6842 34.9219 27.8684 45 40.4211 45ZM60.6316 50H51.9316C48.4263 51.5938 44.5263 52.5 40.4211 52.5C36.3158 52.5 32.4316 51.5938 28.9105 50H20.2105C9.04737 50 0 58.9531 0 70V72.5C0 76.6406 3.39474 80 7.57895 80H73.2632C77.4474 80 80.8421 76.6406 80.8421 72.5V70C80.8421 58.9531 71.7947 50 60.6316 50Z" fill="white"/>
</g>
<defs>
<clipPath id="clip0_142_132">
<rect width="80.8421" height="80" fill="white"/>
</clipPath>
</defs>
</svg>
