<svg width="104" height="80" viewBox="0 0 104 80" fill="none" xmlns="http://www.w3.org/2000/svg">
<path d="M97.0859 0.00969748C87.2738 0.565052 67.7714 2.58647 55.7319 9.93643C54.9011 10.4436 54.4302 11.3454 54.4302 12.2882V77.2647C54.4302 79.3272 56.6916 80.6307 58.5986 79.6736C70.9854 73.4558 88.8996 71.7593 97.7574 71.2951C100.782 71.1361 103.133 68.7183 103.133 65.8201V5.49181C103.134 2.32933 100.384 -0.176016 97.0859 0.00969748ZM47.4006 9.93643C35.3629 2.58647 15.8605 0.566838 6.0484 0.00969748C2.75025 -0.176016 0 2.32933 0 5.49181V65.8219C0 68.7219 2.35096 71.1397 5.37516 71.2969C14.2365 71.7611 32.1596 73.4593 44.5465 79.6807C46.448 80.6361 48.7023 79.3343 48.7023 77.2772V12.2561C48.7023 11.3114 48.2332 10.4454 47.4006 9.93643Z" fill="white"/>
</svg>
